<svg width="14" height="14" viewBox="0 0 14 14" fill="none" xmlns="http://www.w3.org/2000/svg">
    <path
        d="M2.80039 0.399994C2.16387 0.399994 1.55342 0.65285 1.10333 1.10294C0.653247 1.55302 0.400391 2.16347 0.400391 2.79999V9.19999C0.400391 9.83651 0.653247 10.447 1.10333 10.897C1.55342 11.3471 2.16387 11.6 2.80039 11.6H5.68039C5.54973 11.3442 5.44443 11.0763 5.36599 10.8H2.80039C2.37604 10.8 1.96908 10.6314 1.66902 10.3314C1.36896 10.0313 1.20039 9.62434 1.20039 9.19999V2.79999C1.20039 2.37565 1.36896 1.96868 1.66902 1.66862C1.96908 1.36856 2.37604 1.19999 2.80039 1.19999H9.20039C9.62474 1.19999 10.0317 1.36856 10.3318 1.66862C10.6318 1.96868 10.8004 2.37565 10.8004 2.79999V5.36559C11.0799 5.44506 11.3465 5.54986 11.6004 5.67999V2.79999C11.6004 2.16347 11.3475 1.55302 10.8974 1.10294C10.4474 0.65285 9.83691 0.399994 9.20039 0.399994H2.80039ZM5.60039 5.99999H7.06999C7.78599 5.49599 8.65879 5.19999 9.60039 5.19999H5.60039C5.4943 5.19999 5.39256 5.24214 5.31755 5.31715C5.24253 5.39217 5.20039 5.49391 5.20039 5.59999C5.20039 5.70608 5.24253 5.80782 5.31755 5.88284C5.39256 5.95785 5.4943 5.99999 5.60039 5.99999ZM2.40039 1.99999C2.2943 1.99999 2.19256 2.04214 2.11755 2.11715C2.04253 2.19217 2.00039 2.29391 2.00039 2.39999C2.00039 2.50608 2.04253 2.60782 2.11755 2.68284C2.19256 2.75785 2.2943 2.79999 2.40039 2.79999H9.60039C9.70648 2.79999 9.80822 2.75785 9.88323 2.68284C9.95825 2.60782 10.0004 2.50608 10.0004 2.39999C10.0004 2.29391 9.95825 2.19217 9.88323 2.11715C9.80822 2.04214 9.70648 1.99999 9.60039 1.99999H2.40039ZM3.20039 6.79999C3.51865 6.79999 3.82387 6.67357 4.04892 6.44852C4.27396 6.22348 4.40039 5.91825 4.40039 5.59999C4.40039 5.28173 4.27396 4.97651 4.04892 4.75147C3.82387 4.52642 3.51865 4.39999 3.20039 4.39999C2.88213 4.39999 2.57691 4.52642 2.35186 4.75147C2.12682 4.97651 2.00039 5.28173 2.00039 5.59999C2.00039 5.91825 2.12682 6.22348 2.35186 6.44852C2.57691 6.67357 2.88213 6.79999 3.20039 6.79999ZM3.20039 5.99999C3.0943 5.99999 2.99256 5.95785 2.91755 5.88284C2.84253 5.80782 2.80039 5.70608 2.80039 5.59999C2.80039 5.49391 2.84253 5.39217 2.91755 5.31715C2.99256 5.24214 3.0943 5.19999 3.20039 5.19999C3.30648 5.19999 3.40822 5.24214 3.48323 5.31715C3.55825 5.39217 3.60039 5.49391 3.60039 5.59999C3.60039 5.70608 3.55825 5.80782 3.48323 5.88284C3.40822 5.95785 3.30648 5.99999 3.20039 5.99999ZM3.20039 9.99999C3.51865 9.99999 3.82387 9.87357 4.04892 9.64852C4.27396 9.42348 4.40039 9.11825 4.40039 8.79999C4.40039 8.48173 4.27396 8.17651 4.04892 7.95147C3.82387 7.72642 3.51865 7.59999 3.20039 7.59999C2.88213 7.59999 2.57691 7.72642 2.35186 7.95147C2.12682 8.17651 2.00039 8.48173 2.00039 8.79999C2.00039 9.11825 2.12682 9.42348 2.35186 9.64852C2.57691 9.87357 2.88213 9.99999 3.20039 9.99999ZM3.20039 8.39999C3.30648 8.39999 3.40822 8.44214 3.48323 8.51715C3.55825 8.59216 3.60039 8.69391 3.60039 8.79999C3.60039 8.90608 3.55825 9.00782 3.48323 9.08284C3.40822 9.15785 3.30648 9.19999 3.20039 9.19999C3.0943 9.19999 2.99256 9.15785 2.91755 9.08284C2.84253 9.00782 2.80039 8.90608 2.80039 8.79999C2.80039 8.69391 2.84253 8.59216 2.91755 8.51715C2.99256 8.44214 3.0943 8.39999 3.20039 8.39999ZM13.2004 9.59999C13.2004 10.5548 12.8211 11.4704 12.146 12.1456C11.4708 12.8207 10.5552 13.2 9.60039 13.2C8.64561 13.2 7.72994 12.8207 7.05481 12.1456C6.37968 11.4704 6.00039 10.5548 6.00039 9.59999C6.00039 8.64521 6.37968 7.72954 7.05481 7.05441C7.72994 6.37928 8.64561 5.99999 9.60039 5.99999C10.5552 5.99999 11.4708 6.37928 12.146 7.05441C12.8211 7.72954 13.2004 8.64521 13.2004 9.59999ZM10.0004 7.99999C10.0004 7.89391 9.95825 7.79216 9.88323 7.71715C9.80822 7.64214 9.70648 7.59999 9.60039 7.59999C9.4943 7.59999 9.39256 7.64214 9.31755 7.71715C9.24253 7.79216 9.20039 7.89391 9.20039 7.99999V9.19999H8.00039C7.8943 9.19999 7.79256 9.24214 7.71755 9.31715C7.64253 9.39217 7.60039 9.49391 7.60039 9.59999C7.60039 9.70608 7.64253 9.80782 7.71755 9.88284C7.79256 9.95785 7.8943 9.99999 8.00039 9.99999H9.20039V11.2C9.20039 11.3061 9.24253 11.4078 9.31755 11.4828C9.39256 11.5579 9.4943 11.6 9.60039 11.6C9.70648 11.6 9.80822 11.5579 9.88323 11.4828C9.95825 11.4078 10.0004 11.3061 10.0004 11.2V9.99999H11.2004C11.3065 9.99999 11.4082 9.95785 11.4832 9.88284C11.5582 9.80782 11.6004 9.70608 11.6004 9.59999C11.6004 9.49391 11.5582 9.39217 11.4832 9.31715C11.4082 9.24214 11.3065 9.19999 11.2004 9.19999H10.0004V7.99999Z"
        fill="white" />
</svg>